<svg width="796" height="1125" viewBox="0 0 796 1125" fill="none" xmlns="http://www.w3.org/2000/svg">
<g clip-path="url(#clip0)">
<g clip-path="url(#clip1)">
<path d="M502.338 661L441.766 899.5L553.801 791.5L502.338 661Z" fill="#EDF2F7" stroke="#E8EFF6" stroke-width="5"/>
<path d="M212.229 764L261.416 910L441.765 899.5L212.229 764Z" fill="#EDF2F7" stroke="#E8EFF6" stroke-width="5"/>
<path d="M502.338 661L212.229 764L441.766 899.5L502.338 661Z" fill="#EDF2F7" stroke="#E8EFF6" stroke-width="5"/>
<path d="M441.766 899.5L588.869 1075L553.801 791.5L441.766 899.5Z" fill="#EDF2F7" stroke="#E8EFF6" stroke-width="5"/>
<path d="M433.568 1147L588.87 1075L441.766 899.5L433.568 1147Z" fill="#EDF2F7" stroke="#E8EFF6" stroke-width="5"/>
<path d="M261.416 910L433.568 1147L441.766 899.5L261.416 910Z" fill="#EDF2F7" stroke="#E8EFF6" stroke-width="5"/>
<path d="M502.338 661L101.105 496L212.23 764L502.338 661Z" fill="#EDF2F7" stroke="#E8EFF6" stroke-width="5"/>
<path d="M939.549 571L563.821 381L502.338 661L939.549 571Z" fill="#EDF2F7" stroke="#E8EFF6" stroke-width="5"/>
<path d="M939.549 571L502.338 661L553.801 791.5L939.549 571Z" fill="#EDF2F7" stroke="#E8EFF6" stroke-width="5"/>
<path d="M588.869 1075L945.014 1047.5L553.801 791.5L588.869 1075Z" fill="#EDF2F7" stroke="#E8EFF6" stroke-width="5"/>
<path d="M433.568 1147L633.957 1131L588.87 1075L433.568 1147Z" fill="#EDF2F7" stroke="#E8EFF6" stroke-width="5"/>
<path d="M563.821 381L378.006 324.5L502.338 661L563.821 381Z" fill="#EDF2F7" stroke="#E8EFF6" stroke-width="5"/>
<path d="M-112.491 968L185.815 1147L261.416 910L-112.491 968Z" fill="#EDF2F7" stroke="#E8EFF6" stroke-width="5"/>
<path d="M378.006 324.5L101.105 496L502.338 661L378.006 324.5Z" fill="#EDF2F7" stroke="#E8EFF6" stroke-width="5"/>
<path d="M-112.491 968L261.416 910L212.229 764L-112.491 968Z" fill="#EDF2F7" stroke="#E8EFF6" stroke-width="5"/>
<path d="M261.416 910L185.814 1147H433.568L261.416 910Z" fill="#EDF2F7" stroke="#E8EFF6" stroke-width="5"/>
<path d="M101.105 496L-17.3066 499L212.229 764L101.105 496Z" fill="#EDF2F7" stroke="#E8EFF6" stroke-width="5"/>
<path d="M244.109 84L-17.3066 499L101.105 496L244.109 84Z" fill="#EDF2F7" stroke="#E8EFF6" stroke-width="5"/>
<path d="M945.014 1047.5L939.549 571L553.801 791.5L945.014 1047.5Z" fill="#EDF2F7" stroke="#E8EFF6" stroke-width="5"/>
<path d="M633.957 1131L945.014 1047.5L588.869 1075L633.957 1131Z" fill="#EDF2F7" stroke="#E8EFF6" stroke-width="5"/>
<path d="M-17.3066 499L-112.491 968L212.229 764L-17.3066 499Z" fill="#EDF2F7" stroke="#E8EFF6" stroke-width="5"/>
<path d="M633.957 1131L804.743 1271L945.015 1047.5L633.957 1131Z" fill="#EDF2F7" stroke="#E8EFF6" stroke-width="5"/>
<path d="M739.616 1484.5L804.743 1271L633.957 1131L739.616 1484.5Z" fill="#EDF2F7" stroke="#E8EFF6" stroke-width="5"/>
<path d="M-112.491 968L-8.19806 1210L185.815 1147L-112.491 968Z" fill="#EDF2F7" stroke="#E8EFF6" stroke-width="5"/>
<path d="M378.006 324.5L244.11 84L101.105 496L378.006 324.5Z" fill="#EDF2F7" stroke="#E8EFF6" stroke-width="5"/>
<path d="M563.821 381L389.392 72.5L378.006 324.5L563.821 381Z" fill="#EDF2F7" stroke="#E8EFF6" stroke-width="5"/>
<path d="M689.974 71L389.392 72.5L563.821 381L689.974 71Z" fill="#EDF2F7" stroke="#E8EFF6" stroke-width="5"/>
<path d="M939.549 571L1020.62 385.5L563.82 381L939.549 571Z" fill="#EDF2F7" stroke="#E8EFF6" stroke-width="5"/>
<path d="M389.391 72.5L244.109 84L378.005 324.5L389.391 72.5Z" fill="#EDF2F7" stroke="#E8EFF6" stroke-width="5"/>
<path d="M1020.62 385.5L689.974 71L563.82 381L1020.62 385.5Z" fill="#EDF2F7" stroke="#E8EFF6" stroke-width="5"/>
<path d="M689.974 71L465.904 -25.5L389.392 72.5L689.974 71Z" fill="#EDF2F7" stroke="#E8EFF6" stroke-width="5"/>
<path d="M389.391 72.5L465.903 -25.5L244.109 84L389.391 72.5Z" fill="#EDF2F7" stroke="#E8EFF6" stroke-width="5"/>
<path d="M1020.62 385.5L971.885 63L689.975 71L1020.62 385.5Z" fill="#EDF2F7" stroke="#E8EFF6" stroke-width="5"/>
<path d="M689.974 71L761.021 -177.5L465.903 -25.5L689.974 71Z" fill="#EDF2F7" stroke="#E8EFF6" stroke-width="5"/>
<path d="M971.885 63L816.584 -28L689.975 71L971.885 63Z" fill="#EDF2F7" stroke="#E8EFF6" stroke-width="5"/>
<path d="M465.903 -25.5L90.6299 -57L244.109 84L465.903 -25.5Z" fill="#EDF2F7" stroke="#E8EFF6" stroke-width="5"/>
<path d="M244.109 84L90.6299 -57L-17.3066 499L244.109 84Z" fill="#EDF2F7" stroke="#E8EFF6" stroke-width="5"/>
<path d="M816.584 -28L761.021 -177.5L689.975 71L816.584 -28Z" fill="#EDF2F7" stroke="#E8EFF6" stroke-width="5"/>
<path d="M90.6306 -57L-166.687 3.50001L-17.306 499L90.6306 -57Z" fill="#EDF2F7" stroke="#E8EFF6" stroke-width="5"/>
</g>
</g>
<defs>
<clipPath id="clip0">
<rect width="796" height="1125" fill="white"/>
</clipPath>
<clipPath id="clip1">
<rect width="797" height="1125" fill="white"/>
</clipPath>
</defs>
</svg>